<?xml version="1.0" encoding="UTF-8" standalone="no"?>
<!DOCTYPE svg PUBLIC "-//W3C//DTD SVG 1.1//EN"
 "http://www.w3.org/Graphics/SVG/1.1/DTD/svg11.dtd">
<!-- Generated by graphviz version 9.0.0 (20230911.1827)
 -->
<!-- Title: App_GymTrend_Tablet Pages: 1 -->
<svg width="236pt" height="116pt"
 viewBox="0.00 0.00 235.62 116.00" xmlns="http://www.w3.org/2000/svg" xmlns:xlink="http://www.w3.org/1999/xlink">
<g id="graph0" class="graph" transform="scale(1 1) rotate(0) translate(4 112)">
<title>App_GymTrend_Tablet</title>
<polygon fill="white" stroke="none" points="-4,4 -4,-112 231.62,-112 231.62,4 -4,4"/>
<!-- Login -->
<g id="node1" class="node">
<title>Login</title>
<polygon fill="none" stroke="black" points="164.12,-108 104.88,-108 104.88,-72 164.12,-72 164.12,-108"/>
<text text-anchor="start" x="116.88" y="-84.95" font-family="Helvetica,sans-Serif" font-size="14.00">Login</text>
</g>
<!-- &#39;RecoverPassword&#39; -->
<g id="node2" class="node">
<title>&#39;RecoverPassword&#39;</title>
<polygon fill="none" stroke="black" points="147,-36 0,-36 0,0 147,0 147,-36"/>
<text text-anchor="start" x="12" y="-12.95" font-family="Helvetica,sans-Serif" font-size="14.00">&#39;RecoverPassword&#39;</text>
</g>
<!-- Login&#45;&gt;&#39;RecoverPassword&#39; -->
<g id="edge1" class="edge">
<title>Login&#45;&gt;&#39;RecoverPassword&#39;</title>
<path fill="none" stroke="black" d="M119.42,-71.7C112.33,-63.56 103.73,-53.69 95.9,-44.7"/>
<polygon fill="black" stroke="black" points="98.61,-42.49 89.4,-37.25 93.33,-47.08 98.61,-42.49"/>
</g>
<!-- Home -->
<g id="node3" class="node">
<title>Home</title>
<polygon fill="none" stroke="black" points="227.62,-36 165.38,-36 165.38,0 227.62,0 227.62,-36"/>
<text text-anchor="start" x="177.38" y="-12.95" font-family="Helvetica,sans-Serif" font-size="14.00">Home</text>
</g>
<!-- Login&#45;&gt;Home -->
<g id="edge2" class="edge">
<title>Login&#45;&gt;Home</title>
<path fill="none" stroke="black" d="M149.83,-71.7C157.03,-63.56 165.78,-53.69 173.74,-44.7"/>
<polygon fill="black" stroke="black" points="176.34,-47.04 180.35,-37.24 171.1,-42.4 176.34,-47.04"/>
</g>
</g>
</svg>
